<svg xmlns="http://www.w3.org/2000/svg" width="37.39565943232" viewBox="0 0 224 224" style="will-change: transform; transform: translate3d(0px, 0px, 0px); margin: -10.6978px;">
    <g transform="translate(0 -28.02)">
        <animateMotion repeatCount="indefinite" dur="0.5167s" fill="freeze" keyTimes="0;0.3225806;0.483871;0.6451613;0.9677419;1" path="M112 140 C112,140 100,140 100,140 C100,140 124,140 124,140 C124,140 100,140 100,140 C100,140 112,140 112,140 C112,140 112,140 112,140 " keyPoints="0;0.17;0.5;0.83;1;1" keySplines="0.8 0 0.8 1;0.8 0 0.8 1;0.8 0 0.8 1;0.2 0 0.2 1;0 0 0 0" calcMode="spline"></animateMotion>
        <animateTransform dur="0.5167s" fill="freeze" attributeName="transform" type="rotate" additive="sum" keyTimes="0;0.2580645;0.3870968;0.5483871;0.7096774;0.9677419;1" values="0;3;-4;6;-6;0;0" keySplines="0.6 0 0.667 1;0.333 0 0.667 1;0.333 0 0.667 1;0.333 0 0.667 1;0.6 0 0.667 1;0 0 0 0" calcMode="spline"></animateTransform>
        <g id="unfilled-heart-shown-in-end">
            <animate dur="0.5167s" fill="freeze" attributeName="opacity" keyTimes="0;0.3225806;0.6451613;1" values="0;0;1;1" keySplines="0.6 0 0.7 1;0.6 0 0.7 1;0 0 0 0" calcMode="spline"></animate>
            <path fill="#ffffff" d="M35.02-31.22a23.7 23.7 0 00-32.08-1.46A5.06 5.06 0 010-31.63c-1.69 0-2.89-1.03-2.93-1.07A23.7 23.7 0 00-35-31.22a23.67 23.67 0 00-6.99 16.86c0 6.36 2.48 12.35 6.9 16.76l27.8 32.54a9.58 9.58 0 0014.6 0l27.7-32.45c4.48-4.46 7-10.53 6.98-16.86a23.7 23.7 0 00-6.98-16.85zM32.82.45L5.02 33A6.82 6.82 0 01-5 33L-32.87.37a20.68 20.68 0 01-6.1-14.73 20.67 20.67 0 016.1-14.74 20.67 20.67 0 0127.99-1.33 7.73 7.73 0 004.9 1.8 7.91 7.91 0 004.85-1.76 20.72 20.72 0 0128.03 1.3A20.8 20.8 0 0132.82.45z"></path>
        </g>
        <g id="filled-heart-shown-at-start">
            <animate dur="0.5167s" fill="freeze" attributeName="opacity" keyTimes="0;0.3225806;0.6451613;1" values="1;1;0;0" keySplines="0.3 0 0.4 1;0.3 0 0.4 1;0 0 0 0" calcMode="spline"></animate>
            <path fill="#1db954" d="M34.96-31.25a24.14 24.14 0 010 34.04L7.6 34.83a10.03 10.03 0 01-15.2 0L-35.04 2.67a24.07 24.07 0 01.08-33.92 23.96 23.96 0 0132.4-1.48c.04.04 1.08.92 2.56.92 1.44 0 2.56-.92 2.56-.92 9.64-8 23.56-7.36 32.4 1.48z"></path>
        </g>
    </g>
</svg>